<svg width="103" height="99" viewBox="0 0 103 99" fill="none" xmlns="http://www.w3.org/2000/svg">
<rect width="78" height="78" transform="matrix(-1 -8.74228e-08 -8.74228e-08 1 93 11)" fill="#485497"/>
<path d="M14 43.3475L66 99L28 99C12.536 99 8.65485e-06 86.464 8.65485e-06 71L8.65485e-06 28C8.65485e-06 12.536 12.536 1.66339e-05 28 1.66339e-05L44.1865 1.66339e-05L54.5339 43.3475L14 43.3475Z" fill="#808BBE"/>
<path d="M1.48766e-05 27.5L66 98.668L28 98.668C12.536 98.668 8.65485e-06 86.1319 1.11027e-05 70.668L1.48766e-05 27.5Z" fill="#97A4D9"/>
<path d="M89.5 55.6526L37 3.23464e-06L75 6.55671e-06C90.464 7.90861e-06 103 12.536 103 28L103 71C103 86.464 90.464 99 75 99L58.8136 99L48.4661 55.6525L89.5 55.6526Z" fill="#A9B2DF"/>
<path d="M103 71.168L37 3.23464e-06L75 6.5567e-06C90.464 7.90861e-06 103 12.536 103 28L103 71.168Z" fill="#CCD2EA"/>
</svg>
